# xmcd CD database file
#
# Track frame offsets:
#	150
#	19304
#	36030
#	53155
#	62494
#	79003
#	94899
#	109644
#	129490
#	146012
#
# Disc length: 2256 seconds
#
# Revision: 0
# Processed by: cddbd v1.5.1PL0 Copyright (c) Steve Scherf et al.
# Submitted via: CDex 1.51
#
DISCID=8008ce0a
DTITLE=THE BOOGIE JACK - 黄金ミュージックツリー
DYEAR=2005
DGENRE=Rock
TTITLE0=君へカケル<アルバムバージョン>
TTITLE1=夜に鳴れ
TTITLE2=チェーンソング
TTITLE3=ドレミ街パーティ
TTITLE4=イッキュウ
TTITLE5=傘蓋‐かさぶた‐
TTITLE6=お願いクラリス
TTITLE7=Bang
TTITLE8=プラネットホーム
TTITLE9=バナナベンチ
EXTD=YEAR: 2005
EXTT0=
EXTT1=
EXTT2=
EXTT3=
EXTT4=
EXTT5=
EXTT6=
EXTT7=
EXTT8=
EXTT9=
PLAYORDER=
